<svg width="28" height="8" viewBox="0 0 28 8" fill="none" xmlns="http://www.w3.org/2000/svg">
<path d="M2.05256 7.27273L0 0H1.4169L2.72727 5.34446H2.79474L4.19389 0H5.48295L6.88565 5.34801H6.94957L8.25994 0H9.67685L7.62429 7.27273H6.32457L4.86861 2.16974H4.81179L3.35227 7.27273H2.05256ZM11.1465 7.38281C10.8009 7.38281 10.4896 7.32126 10.2126 7.19815C9.93795 7.07268 9.72015 6.88802 9.55916 6.64418C9.40054 6.40033 9.32124 6.09967 9.32124 5.74219C9.32124 5.43442 9.37805 5.17992 9.49169 4.97869C9.60533 4.77746 9.76039 4.61648 9.95689 4.49574C10.1534 4.375 10.3747 4.28385 10.621 4.2223C10.8695 4.15838 11.1264 4.11222 11.3915 4.08381C11.7112 4.05066 11.9704 4.02107 12.1692 3.99503C12.3681 3.96662 12.5125 3.92401 12.6025 3.86719C12.6948 3.808 12.741 3.71686 12.741 3.59375V3.57244C12.741 3.30492 12.6617 3.09777 12.5031 2.95099C12.3444 2.80421 12.116 2.73082 11.8177 2.73082C11.5028 2.73082 11.2531 2.79948 11.0684 2.93679C10.8861 3.0741 10.763 3.23627 10.6991 3.4233L9.49879 3.25284C9.59349 2.9214 9.74974 2.64441 9.96754 2.42188C10.1853 2.19697 10.4517 2.02888 10.7665 1.91761C11.0814 1.80398 11.4294 1.74716 11.8106 1.74716C12.0734 1.74716 12.335 1.77794 12.5954 1.83949C12.8558 1.90104 13.0937 2.00284 13.3092 2.14489C13.5246 2.28456 13.6974 2.47514 13.8276 2.71662C13.9602 2.9581 14.0265 3.25994 14.0265 3.62216V7.27273H12.7907V6.52344H12.7481C12.67 6.67495 12.5599 6.817 12.4178 6.94957C12.2781 7.07978 12.1018 7.18513 11.8887 7.26563C11.678 7.34375 11.4306 7.38281 11.1465 7.38281ZM11.4803 6.43821C11.7384 6.43821 11.9621 6.38731 12.1515 6.28551C12.3409 6.18134 12.4865 6.04403 12.5883 5.87358C12.6924 5.70313 12.7445 5.51728 12.7445 5.31605V4.6733C12.7043 4.70644 12.6356 4.73722 12.5386 4.76562C12.4439 4.79403 12.3373 4.81889 12.219 4.8402C12.1006 4.86151 11.9834 4.88045 11.8674 4.89702C11.7514 4.91359 11.6508 4.92779 11.5656 4.93963C11.3738 4.96567 11.2022 5.00829 11.0506 5.06747C10.8991 5.12666 10.7796 5.20952 10.692 5.31605C10.6044 5.42022 10.5606 5.55516 10.5606 5.72088C10.5606 5.95762 10.647 6.13636 10.8198 6.2571C10.9926 6.37784 11.2128 6.43821 11.4803 6.43821ZM16.2046 0V7.27273H14.9191V0H16.2046ZM18.412 0V7.27273H17.1265V0H18.412ZM21.7487 7.37926C21.2018 7.37926 20.7295 7.26563 20.3318 7.03835C19.9365 6.80871 19.6322 6.48438 19.4192 6.06534C19.2061 5.64394 19.0996 5.14796 19.0996 4.57741C19.0996 4.01634 19.2061 3.52391 19.4192 3.10014C19.6346 2.67401 19.9353 2.34257 20.3212 2.10582C20.7071 1.86671 21.1604 1.74716 21.6812 1.74716C22.0174 1.74716 22.3347 1.80161 22.633 1.91051C22.9336 2.01705 23.1988 2.18277 23.4284 2.40767C23.6604 2.63258 23.8427 2.91903 23.9753 3.26705C24.1079 3.61269 24.1741 4.02462 24.1741 4.50284V4.89702H19.7033V4.03054H22.9419C22.9395 3.78433 22.8863 3.56534 22.7821 3.37358C22.6779 3.17945 22.5323 3.02675 22.3453 2.91548C22.1607 2.80421 21.9452 2.74858 21.699 2.74858C21.4362 2.74858 21.2054 2.8125 21.0065 2.94034C20.8077 3.06581 20.6526 3.23153 20.5413 3.4375C20.4324 3.6411 20.3768 3.86482 20.3744 4.10866V4.86506C20.3744 5.18229 20.4324 5.45455 20.5484 5.68182C20.6644 5.90672 20.8266 6.07955 21.0349 6.20028C21.2433 6.31866 21.4871 6.37784 21.7665 6.37784C21.9535 6.37784 22.1228 6.3518 22.2743 6.29972C22.4258 6.24527 22.5572 6.16596 22.6685 6.06179C22.7797 5.95762 22.8638 5.8286 22.9206 5.67472L24.1209 5.80966C24.0451 6.12689 23.9007 6.40388 23.6876 6.64063C23.4769 6.875 23.2071 7.05729 22.878 7.1875C22.5489 7.31534 22.1725 7.37926 21.7487 7.37926ZM27.5854 1.81818V2.8125H24.4498V1.81818H27.5854ZM25.2239 0.511364H26.5094V5.6321C26.5094 5.80492 26.5355 5.9375 26.5875 6.02983C26.642 6.11979 26.713 6.18134 26.8006 6.21449C26.8882 6.24763 26.9853 6.2642 27.0918 6.2642C27.1723 6.2642 27.2457 6.25829 27.312 6.24645C27.3806 6.23461 27.4327 6.22396 27.4682 6.21449L27.6848 7.21946C27.6162 7.24313 27.5179 7.26918 27.3901 7.29759C27.2646 7.32599 27.1107 7.34257 26.9284 7.3473C26.6065 7.35677 26.3165 7.30824 26.0584 7.2017C25.8004 7.0928 25.5956 6.92472 25.4441 6.69744C25.2949 6.47017 25.2215 6.18608 25.2239 5.84517V0.511364Z" fill="#152536"/>
</svg>
